<svg width="358" height="191" viewBox="0 0 358 191" fill="none" xmlns="http://www.w3.org/2000/svg">
<rect width="358" height="191" rx="16" fill="#D9D9D9"/>
<mask id="mask0_89_16282" style="mask-type:alpha" maskUnits="userSpaceOnUse" x="159" y="65" width="40" height="40">
<rect x="159" y="65" width="40" height="40" fill="#D9D9D9"/>
</mask>
<g mask="url(#mask0_89_16282)">
<path d="M194.001 95.2497L190.667 91.9164V73.333H172.084L168.751 69.9997H190.667C191.584 69.9997 192.369 70.3261 193.021 70.9789C193.674 71.6317 194.001 72.4164 194.001 73.333V95.2497ZM192.001 102.666L189.334 99.9997H167.334C166.417 99.9997 165.633 99.6733 164.98 99.0205C164.327 98.3678 164.001 97.583 164.001 96.6664V74.6664L161.334 71.9997L163.667 69.6664L194.334 100.333L192.001 102.666ZM169.001 93.3331L174.001 86.6664L177.751 91.6664L179.126 89.833L167.334 78.0414V96.6664H185.959L182.626 93.3331H169.001Z" fill="#666666"/>
</g>
<path d="M140.553 118.469V127H139.416L135.121 120.42V127H133.99V118.469H135.121L139.434 125.066V118.469H140.553ZM142.105 123.9V123.766C142.105 123.309 142.172 122.885 142.305 122.494C142.438 122.1 142.629 121.758 142.879 121.469C143.129 121.176 143.432 120.949 143.787 120.789C144.143 120.625 144.541 120.543 144.982 120.543C145.428 120.543 145.828 120.625 146.184 120.789C146.543 120.949 146.848 121.176 147.098 121.469C147.352 121.758 147.545 122.1 147.678 122.494C147.811 122.885 147.877 123.309 147.877 123.766V123.9C147.877 124.357 147.811 124.781 147.678 125.172C147.545 125.562 147.352 125.904 147.098 126.197C146.848 126.486 146.545 126.713 146.189 126.877C145.838 127.037 145.439 127.117 144.994 127.117C144.549 127.117 144.148 127.037 143.793 126.877C143.438 126.713 143.133 126.486 142.879 126.197C142.629 125.904 142.438 125.562 142.305 125.172C142.172 124.781 142.105 124.357 142.105 123.9ZM143.189 123.766V123.9C143.189 124.217 143.227 124.516 143.301 124.797C143.375 125.074 143.486 125.32 143.635 125.535C143.787 125.75 143.977 125.92 144.203 126.045C144.43 126.166 144.693 126.227 144.994 126.227C145.291 126.227 145.551 126.166 145.773 126.045C146 125.92 146.188 125.75 146.336 125.535C146.484 125.32 146.596 125.074 146.67 124.797C146.748 124.516 146.787 124.217 146.787 123.9V123.766C146.787 123.453 146.748 123.158 146.67 122.881C146.596 122.6 146.482 122.352 146.33 122.137C146.182 121.918 145.994 121.746 145.768 121.621C145.545 121.496 145.283 121.434 144.982 121.434C144.686 121.434 144.424 121.496 144.197 121.621C143.975 121.746 143.787 121.918 143.635 122.137C143.486 122.352 143.375 122.6 143.301 122.881C143.227 123.158 143.189 123.453 143.189 123.766ZM153.391 120.66V127H152.301V120.66H153.391ZM152.219 118.979C152.219 118.803 152.271 118.654 152.377 118.533C152.486 118.412 152.646 118.352 152.857 118.352C153.064 118.352 153.223 118.412 153.332 118.533C153.445 118.654 153.502 118.803 153.502 118.979C153.502 119.146 153.445 119.291 153.332 119.412C153.223 119.529 153.064 119.588 152.857 119.588C152.646 119.588 152.486 119.529 152.377 119.412C152.271 119.291 152.219 119.146 152.219 118.979ZM156.209 121.92V127H155.119V120.66H156.15L156.209 121.92ZM155.986 123.59L155.482 123.572C155.486 123.139 155.543 122.738 155.652 122.371C155.762 122 155.924 121.678 156.139 121.404C156.354 121.131 156.621 120.92 156.941 120.771C157.262 120.619 157.633 120.543 158.055 120.543C158.352 120.543 158.625 120.586 158.875 120.672C159.125 120.754 159.342 120.885 159.525 121.064C159.709 121.244 159.852 121.475 159.953 121.756C160.055 122.037 160.105 122.377 160.105 122.775V127H159.021V122.828C159.021 122.496 158.965 122.23 158.852 122.031C158.742 121.832 158.586 121.688 158.383 121.598C158.18 121.504 157.941 121.457 157.668 121.457C157.348 121.457 157.08 121.514 156.865 121.627C156.65 121.74 156.479 121.896 156.35 122.096C156.221 122.295 156.127 122.523 156.068 122.781C156.014 123.035 155.986 123.305 155.986 123.59ZM160.094 122.992L159.367 123.215C159.371 122.867 159.428 122.533 159.537 122.213C159.65 121.893 159.812 121.607 160.023 121.357C160.238 121.107 160.502 120.91 160.814 120.766C161.127 120.617 161.484 120.543 161.887 120.543C162.227 120.543 162.527 120.588 162.789 120.678C163.055 120.768 163.277 120.906 163.457 121.094C163.641 121.277 163.779 121.514 163.873 121.803C163.967 122.092 164.014 122.436 164.014 122.834V127H162.924V122.822C162.924 122.467 162.867 122.191 162.754 121.996C162.645 121.797 162.488 121.658 162.285 121.58C162.086 121.498 161.848 121.457 161.57 121.457C161.332 121.457 161.121 121.498 160.938 121.58C160.754 121.662 160.6 121.775 160.475 121.92C160.35 122.061 160.254 122.223 160.188 122.406C160.125 122.59 160.094 122.785 160.094 122.992ZM169.393 125.916V122.652C169.393 122.402 169.342 122.186 169.24 122.002C169.143 121.814 168.994 121.67 168.795 121.568C168.596 121.467 168.35 121.416 168.057 121.416C167.783 121.416 167.543 121.463 167.336 121.557C167.133 121.65 166.973 121.773 166.855 121.926C166.742 122.078 166.686 122.242 166.686 122.418H165.602C165.602 122.191 165.66 121.967 165.777 121.744C165.895 121.521 166.062 121.32 166.281 121.141C166.504 120.957 166.77 120.812 167.078 120.707C167.391 120.598 167.738 120.543 168.121 120.543C168.582 120.543 168.988 120.621 169.34 120.777C169.695 120.934 169.973 121.17 170.172 121.486C170.375 121.799 170.477 122.191 170.477 122.664V125.617C170.477 125.828 170.494 126.053 170.529 126.291C170.568 126.529 170.625 126.734 170.699 126.906V127H169.568C169.514 126.875 169.471 126.709 169.439 126.502C169.408 126.291 169.393 126.096 169.393 125.916ZM169.58 123.156L169.592 123.918H168.496C168.188 123.918 167.912 123.943 167.67 123.994C167.428 124.041 167.225 124.113 167.061 124.211C166.896 124.309 166.771 124.432 166.686 124.58C166.6 124.725 166.557 124.895 166.557 125.09C166.557 125.289 166.602 125.471 166.691 125.635C166.781 125.799 166.916 125.93 167.096 126.027C167.279 126.121 167.504 126.168 167.77 126.168C168.102 126.168 168.395 126.098 168.648 125.957C168.902 125.816 169.104 125.645 169.252 125.441C169.404 125.238 169.486 125.041 169.498 124.85L169.961 125.371C169.934 125.535 169.859 125.717 169.738 125.916C169.617 126.115 169.455 126.307 169.252 126.49C169.053 126.67 168.814 126.82 168.537 126.941C168.264 127.059 167.955 127.117 167.611 127.117C167.182 127.117 166.805 127.033 166.48 126.865C166.16 126.697 165.91 126.473 165.73 126.191C165.555 125.906 165.467 125.588 165.467 125.236C165.467 124.896 165.533 124.598 165.666 124.34C165.799 124.078 165.99 123.861 166.24 123.689C166.49 123.514 166.791 123.381 167.143 123.291C167.494 123.201 167.887 123.156 168.32 123.156H169.58ZM176.289 120.66H177.273V126.865C177.273 127.424 177.16 127.9 176.934 128.295C176.707 128.689 176.391 128.988 175.984 129.191C175.582 129.398 175.117 129.502 174.59 129.502C174.371 129.502 174.113 129.467 173.816 129.396C173.523 129.33 173.234 129.215 172.949 129.051C172.668 128.891 172.432 128.674 172.24 128.4L172.809 127.756C173.074 128.076 173.352 128.299 173.641 128.424C173.934 128.549 174.223 128.611 174.508 128.611C174.852 128.611 175.148 128.547 175.398 128.418C175.648 128.289 175.842 128.098 175.979 127.844C176.119 127.594 176.189 127.285 176.189 126.918V122.055L176.289 120.66ZM171.924 123.9V123.777C171.924 123.293 171.98 122.854 172.094 122.459C172.211 122.061 172.377 121.719 172.592 121.434C172.811 121.148 173.074 120.93 173.383 120.777C173.691 120.621 174.039 120.543 174.426 120.543C174.824 120.543 175.172 120.613 175.469 120.754C175.77 120.891 176.023 121.092 176.23 121.357C176.441 121.619 176.607 121.936 176.729 122.307C176.85 122.678 176.934 123.098 176.98 123.566V124.105C176.938 124.57 176.854 124.988 176.729 125.359C176.607 125.73 176.441 126.047 176.23 126.309C176.023 126.57 175.77 126.771 175.469 126.912C175.168 127.049 174.816 127.117 174.414 127.117C174.035 127.117 173.691 127.037 173.383 126.877C173.078 126.717 172.816 126.492 172.598 126.203C172.379 125.914 172.211 125.574 172.094 125.184C171.98 124.789 171.924 124.361 171.924 123.9ZM173.008 123.777V123.9C173.008 124.217 173.039 124.514 173.102 124.791C173.168 125.068 173.268 125.312 173.4 125.523C173.537 125.734 173.711 125.9 173.922 126.021C174.133 126.139 174.385 126.197 174.678 126.197C175.037 126.197 175.334 126.121 175.568 125.969C175.803 125.816 175.988 125.615 176.125 125.365C176.266 125.115 176.375 124.844 176.453 124.551V123.139C176.41 122.924 176.344 122.717 176.254 122.518C176.168 122.314 176.055 122.135 175.914 121.979C175.777 121.818 175.607 121.691 175.404 121.598C175.201 121.504 174.963 121.457 174.689 121.457C174.393 121.457 174.137 121.52 173.922 121.645C173.711 121.766 173.537 121.934 173.4 122.148C173.268 122.359 173.168 122.605 173.102 122.887C173.039 123.164 173.008 123.461 173.008 123.777ZM181.551 127.117C181.109 127.117 180.709 127.043 180.35 126.895C179.994 126.742 179.688 126.529 179.43 126.256C179.176 125.982 178.98 125.658 178.844 125.283C178.707 124.908 178.639 124.498 178.639 124.053V123.807C178.639 123.291 178.715 122.832 178.867 122.43C179.02 122.023 179.227 121.68 179.488 121.398C179.75 121.117 180.047 120.904 180.379 120.76C180.711 120.615 181.055 120.543 181.41 120.543C181.863 120.543 182.254 120.621 182.582 120.777C182.914 120.934 183.186 121.152 183.396 121.434C183.607 121.711 183.764 122.039 183.865 122.418C183.967 122.793 184.018 123.203 184.018 123.648V124.135H179.283V123.25H182.934V123.168C182.918 122.887 182.859 122.613 182.758 122.348C182.66 122.082 182.504 121.863 182.289 121.691C182.074 121.52 181.781 121.434 181.41 121.434C181.164 121.434 180.938 121.486 180.73 121.592C180.523 121.693 180.346 121.846 180.197 122.049C180.049 122.252 179.934 122.5 179.852 122.793C179.77 123.086 179.729 123.424 179.729 123.807V124.053C179.729 124.354 179.77 124.637 179.852 124.902C179.938 125.164 180.061 125.395 180.221 125.594C180.385 125.793 180.582 125.949 180.812 126.062C181.047 126.176 181.312 126.232 181.609 126.232C181.992 126.232 182.316 126.154 182.582 125.998C182.848 125.842 183.08 125.633 183.279 125.371L183.936 125.893C183.799 126.1 183.625 126.297 183.414 126.484C183.203 126.672 182.943 126.824 182.635 126.941C182.33 127.059 181.969 127.117 181.551 127.117ZM188.975 125.318C188.975 125.162 188.939 125.018 188.869 124.885C188.803 124.748 188.664 124.625 188.453 124.516C188.246 124.402 187.934 124.305 187.516 124.223C187.164 124.148 186.846 124.061 186.561 123.959C186.279 123.857 186.039 123.734 185.84 123.59C185.645 123.445 185.494 123.275 185.389 123.08C185.283 122.885 185.23 122.656 185.23 122.395C185.23 122.145 185.285 121.908 185.395 121.686C185.508 121.463 185.666 121.266 185.869 121.094C186.076 120.922 186.324 120.787 186.613 120.689C186.902 120.592 187.225 120.543 187.58 120.543C188.088 120.543 188.521 120.633 188.881 120.812C189.24 120.992 189.516 121.232 189.707 121.533C189.898 121.83 189.994 122.16 189.994 122.523H188.91C188.91 122.348 188.857 122.178 188.752 122.014C188.65 121.846 188.5 121.707 188.301 121.598C188.105 121.488 187.865 121.434 187.58 121.434C187.279 121.434 187.035 121.48 186.848 121.574C186.664 121.664 186.529 121.779 186.443 121.92C186.361 122.061 186.32 122.209 186.32 122.365C186.32 122.482 186.34 122.588 186.379 122.682C186.422 122.771 186.496 122.855 186.602 122.934C186.707 123.008 186.855 123.078 187.047 123.145C187.238 123.211 187.482 123.277 187.779 123.344C188.299 123.461 188.727 123.602 189.062 123.766C189.398 123.93 189.648 124.131 189.812 124.369C189.977 124.607 190.059 124.896 190.059 125.236C190.059 125.514 190 125.768 189.883 125.998C189.77 126.229 189.604 126.428 189.385 126.596C189.17 126.76 188.912 126.889 188.611 126.982C188.314 127.072 187.98 127.117 187.609 127.117C187.051 127.117 186.578 127.018 186.191 126.818C185.805 126.619 185.512 126.361 185.312 126.045C185.113 125.729 185.014 125.395 185.014 125.043H186.104C186.119 125.34 186.205 125.576 186.361 125.752C186.518 125.924 186.709 126.047 186.936 126.121C187.162 126.191 187.387 126.227 187.609 126.227C187.906 126.227 188.154 126.188 188.354 126.109C188.557 126.031 188.711 125.924 188.816 125.787C188.922 125.65 188.975 125.494 188.975 125.318ZM196.076 127H194.992V119.992C194.992 119.535 195.074 119.15 195.238 118.838C195.406 118.521 195.646 118.283 195.959 118.123C196.271 117.959 196.643 117.877 197.072 117.877C197.197 117.877 197.322 117.885 197.447 117.9C197.576 117.916 197.701 117.939 197.822 117.971L197.764 118.855C197.682 118.836 197.588 118.822 197.482 118.814C197.381 118.807 197.279 118.803 197.178 118.803C196.947 118.803 196.748 118.85 196.58 118.943C196.416 119.033 196.291 119.166 196.205 119.342C196.119 119.518 196.076 119.734 196.076 119.992V127ZM197.424 120.66V121.492H193.99V120.66H197.424ZM198.344 123.9V123.766C198.344 123.309 198.41 122.885 198.543 122.494C198.676 122.1 198.867 121.758 199.117 121.469C199.367 121.176 199.67 120.949 200.025 120.789C200.381 120.625 200.779 120.543 201.221 120.543C201.666 120.543 202.066 120.625 202.422 120.789C202.781 120.949 203.086 121.176 203.336 121.469C203.59 121.758 203.783 122.1 203.916 122.494C204.049 122.885 204.115 123.309 204.115 123.766V123.9C204.115 124.357 204.049 124.781 203.916 125.172C203.783 125.562 203.59 125.904 203.336 126.197C203.086 126.486 202.783 126.713 202.428 126.877C202.076 127.037 201.678 127.117 201.232 127.117C200.787 127.117 200.387 127.037 200.031 126.877C199.676 126.713 199.371 126.486 199.117 126.197C198.867 125.904 198.676 125.562 198.543 125.172C198.41 124.781 198.344 124.357 198.344 123.9ZM199.428 123.766V123.9C199.428 124.217 199.465 124.516 199.539 124.797C199.613 125.074 199.725 125.32 199.873 125.535C200.025 125.75 200.215 125.92 200.441 126.045C200.668 126.166 200.932 126.227 201.232 126.227C201.529 126.227 201.789 126.166 202.012 126.045C202.238 125.92 202.426 125.75 202.574 125.535C202.723 125.32 202.834 125.074 202.908 124.797C202.986 124.516 203.025 124.217 203.025 123.9V123.766C203.025 123.453 202.986 123.158 202.908 122.881C202.834 122.6 202.721 122.352 202.568 122.137C202.42 121.918 202.232 121.746 202.006 121.621C201.783 121.496 201.521 121.434 201.221 121.434C200.924 121.434 200.662 121.496 200.436 121.621C200.213 121.746 200.025 121.918 199.873 122.137C199.725 122.352 199.613 122.6 199.539 122.881C199.465 123.158 199.428 123.453 199.428 123.766ZM209.354 125.535V120.66H210.443V127H209.406L209.354 125.535ZM209.559 124.199L210.01 124.188C210.01 124.609 209.965 125 209.875 125.359C209.789 125.715 209.648 126.023 209.453 126.285C209.258 126.547 209.002 126.752 208.686 126.9C208.369 127.045 207.984 127.117 207.531 127.117C207.223 127.117 206.939 127.072 206.682 126.982C206.428 126.893 206.209 126.754 206.025 126.566C205.842 126.379 205.699 126.135 205.598 125.834C205.5 125.533 205.451 125.172 205.451 124.75V120.66H206.535V124.762C206.535 125.047 206.566 125.283 206.629 125.471C206.695 125.654 206.783 125.801 206.893 125.91C207.006 126.016 207.131 126.09 207.268 126.133C207.408 126.176 207.553 126.197 207.701 126.197C208.162 126.197 208.527 126.109 208.797 125.934C209.066 125.754 209.26 125.514 209.377 125.213C209.498 124.908 209.559 124.57 209.559 124.199ZM213.18 122.014V127H212.096V120.66H213.121L213.18 122.014ZM212.922 123.59L212.471 123.572C212.475 123.139 212.539 122.738 212.664 122.371C212.789 122 212.965 121.678 213.191 121.404C213.418 121.131 213.688 120.92 214 120.771C214.316 120.619 214.666 120.543 215.049 120.543C215.361 120.543 215.643 120.586 215.893 120.672C216.143 120.754 216.355 120.887 216.531 121.07C216.711 121.254 216.848 121.492 216.941 121.785C217.035 122.074 217.082 122.428 217.082 122.846V127H215.992V122.834C215.992 122.502 215.943 122.236 215.846 122.037C215.748 121.834 215.605 121.688 215.418 121.598C215.23 121.504 215 121.457 214.727 121.457C214.457 121.457 214.211 121.514 213.988 121.627C213.77 121.74 213.58 121.896 213.42 122.096C213.264 122.295 213.141 122.523 213.051 122.781C212.965 123.035 212.922 123.305 212.922 123.59ZM222.725 125.77V118H223.814V127H222.818L222.725 125.77ZM218.459 123.9V123.777C218.459 123.293 218.518 122.854 218.635 122.459C218.756 122.061 218.926 121.719 219.145 121.434C219.367 121.148 219.631 120.93 219.936 120.777C220.244 120.621 220.588 120.543 220.967 120.543C221.365 120.543 221.713 120.613 222.01 120.754C222.311 120.891 222.564 121.092 222.771 121.357C222.982 121.619 223.148 121.936 223.27 122.307C223.391 122.678 223.475 123.098 223.521 123.566V124.105C223.479 124.57 223.395 124.988 223.27 125.359C223.148 125.73 222.982 126.047 222.771 126.309C222.564 126.57 222.311 126.771 222.01 126.912C221.709 127.049 221.357 127.117 220.955 127.117C220.584 127.117 220.244 127.037 219.936 126.877C219.631 126.717 219.367 126.492 219.145 126.203C218.926 125.914 218.756 125.574 218.635 125.184C218.518 124.789 218.459 124.361 218.459 123.9ZM219.549 123.777V123.9C219.549 124.217 219.58 124.514 219.643 124.791C219.709 125.068 219.811 125.312 219.947 125.523C220.084 125.734 220.258 125.9 220.469 126.021C220.68 126.139 220.932 126.197 221.225 126.197C221.584 126.197 221.879 126.121 222.109 125.969C222.344 125.816 222.531 125.615 222.672 125.365C222.812 125.115 222.922 124.844 223 124.551V123.139C222.953 122.924 222.885 122.717 222.795 122.518C222.709 122.314 222.596 122.135 222.455 121.979C222.318 121.818 222.148 121.691 221.945 121.598C221.746 121.504 221.51 121.457 221.236 121.457C220.939 121.457 220.684 121.52 220.469 121.645C220.258 121.766 220.084 121.934 219.947 122.148C219.811 122.359 219.709 122.605 219.643 122.887C219.58 123.164 219.549 123.461 219.549 123.777Z" fill="#666666"/>
</svg>
